<?xml version="1.0" standalone="no"?>
<!DOCTYPE svg PUBLIC "-//W3C//DTD SVG 20010904//EN"
 "http://www.w3.org/TR/2001/REC-SVG-20010904/DTD/svg10.dtd">
<svg version="1.0" xmlns="http://www.w3.org/2000/svg"
 width="49.000000pt" height="48.000000pt" viewBox="0 0 49.000000 48.000000"
 preserveAspectRatio="xMidYMid meet">

<g transform="translate(0.000000,48.000000) scale(0.100000,-0.100000)"
fill="#FFC80B" stroke="none">
<path d="M272 351 l-104 -111 56 0 55 0 3 -109 3 -109 92 101 93 102 -43 5
-42 5 -5 113 -5 114 -103 -111z"/>
<path d="M57 236 c-47 -54 -47 -56 -23 -56 25 0 26 -3 26 -57 l0 -57 44 49
c37 42 41 51 25 53 -15 3 -19 14 -21 63 l-3 61 -48 -56z"/>
</g>
</svg>
