<svg width="1301" height="272" viewBox="0 0 1301 272" fill="none" xmlns="http://www.w3.org/2000/svg">
<path d="M53.8725 239.065L132.597 201.956C133.31 201.625 134.086 201.454 134.872 201.454C135.657 201.454 136.433 201.625 137.146 201.956L215.832 238.989C216.755 239.437 217.787 239.608 218.805 239.483C219.822 239.357 220.782 238.94 221.568 238.281L244.795 217.652C245.267 217.251 245.627 216.733 245.839 216.15C246.05 215.567 246.107 214.939 246.003 214.328C245.899 213.717 245.637 213.143 245.244 212.663C244.852 212.184 244.341 211.814 243.762 211.592L143.666 162.017C140.947 160.705 137.967 160.023 134.948 160.023C131.929 160.023 128.949 160.705 126.231 162.017L26.5929 210.98C26.0227 211.198 25.5178 211.559 25.1264 212.027C24.7351 212.496 24.4699 213.057 24.3568 213.657C24.2437 214.257 24.2861 214.876 24.48 215.455C24.6739 216.034 25.0132 216.553 25.4648 216.964L48.1948 238.281C48.9661 238.943 49.9118 239.369 50.9186 239.508C51.9253 239.647 52.9506 239.493 53.8725 239.065Z" fill="#F2C02A"/>
<path d="M126.137 2.39589L128.049 72.4273C128.052 72.7258 128.007 73.0229 127.915 73.3068C127.417 74.7785 126.595 76.1198 125.51 77.2316C124.425 78.3434 123.104 79.1974 121.645 79.7306C119.899 80.2843 118.035 80.349 116.256 79.9175C114.476 79.4861 112.849 78.575 111.551 77.2834C111.407 77.131 111.279 76.9644 111.169 76.7864L74.8462 17.0981C74.6753 16.8183 74.5621 16.507 74.5139 16.1827C74.4657 15.8584 74.4832 15.5278 74.5652 15.2103C74.6473 14.8929 74.7921 14.5952 74.9914 14.3349C75.1907 14.0746 75.4405 13.857 75.7255 13.695C82.9509 9.53571 90.6539 6.26807 98.666 3.96363C106.759 1.64139 115.104 0.312429 123.518 0.00606264C123.848 -0.0145927 124.179 0.0313998 124.491 0.141278C124.803 0.251156 125.09 0.42267 125.334 0.645644C125.578 0.868618 125.775 1.13849 125.913 1.43917C126.051 1.73985 126.127 2.06521 126.137 2.39589Z" fill="#F2C02A"/>
<path d="M143.247 2.39592L141.335 72.4274C141.322 72.7264 141.368 73.0252 141.469 73.3068C141.96 74.7826 142.779 76.1277 143.865 77.2405C144.952 78.3533 146.276 79.2048 147.74 79.7307C149.482 80.2827 151.343 80.3465 153.119 79.9151C154.895 79.4836 156.519 78.5734 157.814 77.2835C157.964 77.1313 158.098 76.9648 158.216 76.7864L194.538 17.0981C194.709 16.8183 194.822 16.507 194.87 16.1827C194.918 15.8585 194.901 15.5278 194.819 15.2104C194.737 14.8929 194.592 14.5952 194.392 14.3349C194.193 14.0746 193.944 13.857 193.659 13.695C186.435 9.53235 178.732 6.26454 170.718 3.96366C162.625 1.64142 154.28 0.312461 145.866 0.0060949C145.535 -0.017293 145.203 0.0267837 144.89 0.135651C144.577 0.244518 144.289 0.415906 144.044 0.639404C143.799 0.862903 143.602 1.13384 143.465 1.43579C143.328 1.73774 143.254 2.0644 143.247 2.39592Z" fill="#F2C02A"/>
<path d="M207.746 22.3749L173.335 83.4014C173.184 83.6594 173.086 83.9456 173.049 84.2426C172.797 85.7786 172.894 87.3516 173.334 88.8446C173.775 90.3375 174.546 91.7119 175.592 92.8652C176.876 94.1664 178.492 95.0912 180.264 95.5394C182.037 95.9876 183.899 95.9421 185.647 95.4079C185.85 95.3463 186.043 95.2562 186.221 95.1402L246.21 59.3311C246.493 59.1644 246.739 58.9424 246.935 58.6784C247.13 58.4144 247.27 58.1138 247.347 57.7944C247.423 57.4751 247.435 57.1435 247.381 56.8196C247.327 56.4957 247.208 56.186 247.032 55.9089C242.559 48.8472 237.251 42.3509 231.222 36.5609C225.159 30.7254 218.405 25.6532 211.111 21.4572C210.543 21.1327 209.87 21.0471 209.239 21.2192C208.608 21.3913 208.071 21.807 207.746 22.3749Z" fill="#F2C02A"/>
<path d="M253.858 75.6202L192.473 109.46C192.211 109.608 191.978 109.803 191.785 110.034C190.762 111.205 190.017 112.592 189.607 114.092C189.196 115.592 189.131 117.165 189.414 118.694C189.819 120.477 190.705 122.115 191.976 123.43C193.247 124.745 194.853 125.686 196.622 126.151C196.831 126.179 197.043 126.179 197.252 126.151L267.106 127.221C267.435 127.226 267.761 127.166 268.066 127.043C268.371 126.92 268.648 126.737 268.881 126.506C269.115 126.274 269.299 125.998 269.425 125.694C269.55 125.391 269.613 125.065 269.61 124.736C269.526 116.35 268.428 108.004 266.341 99.8817C264.237 91.7311 261.149 83.8666 257.146 76.4614C256.813 75.9232 256.285 75.5349 255.672 75.378C255.058 75.2212 254.408 75.308 253.858 75.6202Z" fill="#F2C02A"/>
<path d="M63.1858 22.3748L97.5965 83.4014C97.74 83.6631 97.8368 83.9478 97.883 84.2426C98.1353 85.7786 98.0376 87.3516 97.5974 88.8446C97.1572 90.3375 96.386 91.7119 95.3408 92.8651C94.0563 94.1664 92.44 95.0912 90.6675 95.5394C88.8949 95.9876 87.0337 95.9421 85.2852 95.4079C85.0762 95.3465 84.8767 95.2565 84.6925 95.1402L24.7221 59.3311C24.4392 59.1644 24.1931 58.9424 23.9977 58.6784C23.8024 58.4144 23.6619 58.1137 23.5852 57.7944C23.5084 57.4751 23.497 57.1435 23.5511 56.8196C23.6052 56.4957 23.7239 56.186 23.9002 55.9089C28.3729 48.8472 33.6812 42.3509 39.71 36.5608C45.7731 30.7254 52.527 25.6532 59.8212 21.4572C60.3902 21.1378 61.0618 21.055 61.6913 21.2267C62.3209 21.3984 62.8577 21.8108 63.1858 22.3748Z" fill="#F2C02A"/>
<path d="M17.1324 75.6201L78.46 109.441C78.722 109.589 78.9554 109.783 79.1484 110.014C80.1714 111.186 80.9156 112.573 81.3262 114.073C81.7367 115.573 81.8028 117.146 81.5189 118.675C81.1141 120.458 80.2278 122.096 78.9571 123.411C77.6864 124.725 76.0799 125.666 74.3118 126.131C74.0961 126.161 73.8773 126.161 73.6616 126.131L3.82702 127.202C3.49764 127.21 3.17025 127.151 2.86417 127.029C2.55808 126.907 2.27986 126.725 2.046 126.493C1.81214 126.261 1.62744 125.984 1.5032 125.678C1.37895 125.373 1.31733 125.046 1.32257 124.717C1.40701 116.33 2.50503 107.985 4.59198 99.8625C6.69663 91.7119 9.78403 83.8474 13.7869 76.4422C14.1236 75.8918 14.6642 75.4966 15.2907 75.3426C15.9172 75.1887 16.579 75.2884 17.1324 75.6201Z" fill="#F2C02A"/>
<path d="M2.29686 143.224L72.3228 141.618C72.6155 141.606 72.9076 141.651 73.183 141.751C74.6537 142.253 75.993 143.078 77.1016 144.167C78.2102 145.256 79.0598 146.58 79.5874 148.041C80.1392 149.786 80.201 151.648 79.7661 153.425C79.3312 155.202 78.4162 156.825 77.1212 158.117C76.9624 158.267 76.7896 158.401 76.605 158.518L16.8069 194.576C16.5256 194.747 16.2127 194.861 15.8869 194.909C15.5612 194.958 15.2295 194.94 14.9106 194.858C14.5916 194.776 14.2923 194.631 14.0303 194.432C13.7683 194.232 13.5487 193.982 13.3848 193.697C9.29463 186.418 6.08585 178.678 3.82632 170.64C1.55305 162.54 0.269226 154.194 0.00291274 145.785C-0.0284693 145.142 0.194731 144.513 0.624123 144.034C1.05352 143.554 1.65442 143.263 2.29686 143.224Z" fill="#F2C02A"/>
<path d="M267.087 143.224L197.062 141.618C196.763 141.604 196.464 141.65 196.182 141.751C194.713 142.255 193.375 143.081 192.267 144.17C191.158 145.258 190.308 146.581 189.778 148.041C189.231 149.788 189.173 151.65 189.611 153.427C190.05 155.203 190.967 156.826 192.263 158.117C192.418 158.272 192.592 158.406 192.779 158.518L252.597 194.576C252.879 194.745 253.191 194.856 253.516 194.903C253.841 194.95 254.173 194.932 254.491 194.85C254.809 194.769 255.108 194.625 255.37 194.427C255.633 194.229 255.853 193.98 256.018 193.697C260.109 186.418 263.317 178.678 265.577 170.64C267.85 162.54 269.134 154.194 269.4 145.785C269.426 145.141 269.199 144.511 268.767 144.032C268.334 143.553 267.731 143.263 267.087 143.224Z" fill="#F2C02A"/>
<path d="M134.874 212.834L60.6611 247.936C82.5602 263.004 108.522 271.058 135.103 271.031C161.441 270.872 187.119 262.769 208.78 247.783L134.874 212.834Z" fill="#F2C02A"/>
<path d="M124.952 129.286L109.161 123.378C108.877 123.27 108.629 123.085 108.445 122.842C108.261 122.6 108.149 122.312 108.121 122.009C108.093 121.706 108.151 121.402 108.287 121.13C108.424 120.859 108.634 120.631 108.893 120.472L162.306 88.4296L162.421 88.5635L138.601 116.572C138.435 116.773 138.319 117.01 138.262 117.264C138.206 117.518 138.21 117.782 138.276 118.034C138.341 118.286 138.465 118.519 138.638 118.713C138.811 118.908 139.028 119.059 139.27 119.153L155.08 125.061C155.362 125.174 155.607 125.364 155.788 125.609C155.969 125.854 156.078 126.144 156.104 126.447C156.13 126.75 156.071 127.055 155.934 127.326C155.797 127.598 155.588 127.826 155.328 127.986L101.916 160.01L101.801 159.876L125.621 131.867C125.791 131.668 125.911 131.431 125.97 131.176C126.029 130.921 126.026 130.655 125.96 130.402C125.894 130.148 125.768 129.915 125.593 129.72C125.417 129.526 125.197 129.377 124.952 129.286Z" fill="#F2C02A"/>
<path d="M338.429 83.0366H358.955L336.358 189.45H315.7L338.429 83.0366Z" fill="white"/>
<path d="M383.756 190.956C377.621 191.002 371.528 189.936 365.772 187.812C360.53 185.947 355.837 182.801 352.12 178.66L362.326 166.213C365.805 169.313 369.744 171.854 374.002 173.745C377.773 175.448 381.859 176.346 385.997 176.381C388.496 176.445 390.985 176.049 393.341 175.214C395.172 174.559 396.783 173.404 397.992 171.881C399.08 170.468 399.663 168.731 399.649 166.947C399.684 165.801 399.391 164.67 398.804 163.685C398.216 162.701 397.36 161.905 396.335 161.392C393.043 159.75 389.574 158.486 385.997 157.626C381.641 156.269 377.366 154.666 373.192 152.824C370.279 151.625 367.697 149.746 365.66 147.344C363.939 145.018 363.062 142.175 363.174 139.285C363.077 133.953 364.767 128.743 367.976 124.484C371.362 120.094 375.762 116.592 380.799 114.277C386.408 111.685 392.53 110.397 398.708 110.511C403.923 110.425 409.109 111.313 413.998 113.129C418.58 114.94 422.68 117.789 425.975 121.452L415.335 133.428C412.685 130.718 409.565 128.51 406.127 126.913C403.06 125.641 399.768 125.001 396.448 125.03C394.08 124.99 391.723 125.36 389.48 126.122C387.616 126.726 385.959 127.842 384.697 129.342C383.501 130.861 382.887 132.758 382.965 134.69C382.913 135.649 383.13 136.604 383.593 137.446C384.055 138.288 384.745 138.984 385.582 139.454C388.671 140.99 391.916 142.19 395.262 143.032C399.952 144.328 404.535 145.983 408.971 147.985C412.159 149.362 414.964 151.495 417.143 154.199C418.995 156.812 419.941 159.96 419.836 163.162C419.922 168.305 418.343 173.338 415.335 177.511C412.092 181.849 407.749 185.242 402.756 187.341C396.75 189.876 390.274 191.108 383.756 190.956Z" fill="white"/>
<path d="M434.467 177.285C434.471 176.392 434.521 175.499 434.617 174.611C434.72 173.669 434.871 172.732 435.069 171.805L444.485 126.95H434.9L438.195 111.659H447.799L453.298 86.1435H473.24L467.986 111.622H483.578L480.282 126.912H464.69L456.442 164.932C456.346 165.32 456.296 165.718 456.292 166.118V167.455C456.232 168.186 456.344 168.921 456.619 169.601C456.893 170.281 457.323 170.887 457.874 171.372C459.012 172.239 460.416 172.685 461.847 172.634C463.193 172.623 464.531 172.42 465.82 172.031C467.157 171.636 468.456 171.203 469.718 170.751C470.762 170.383 471.787 169.962 472.788 169.489L473.39 185.514C471.21 186.533 468.979 187.438 466.705 188.226C464.181 189.125 461.586 189.812 458.947 190.278C456.271 190.727 453.563 190.954 450.85 190.956C446.742 191.091 442.69 189.975 439.231 187.755C436.055 185.633 434.467 182.143 434.467 177.285Z" fill="white"/>
<path d="M512.502 190.957C507.169 191.114 501.914 189.643 497.437 186.738C493.242 183.861 489.925 179.879 487.852 175.233C485.56 170.212 484.409 164.746 484.482 159.227C484.452 152.857 485.647 146.54 488.003 140.622C490.24 134.921 493.458 129.656 497.513 125.067C501.368 120.675 506.019 117.053 511.222 114.39C516.255 111.806 521.834 110.463 527.492 110.473C532.233 110.319 536.896 111.703 540.786 114.418C544.676 117.133 547.582 121.034 549.072 125.538L552.066 111.754H572.158L560.314 165.554C560.22 166.043 560.144 166.514 560.088 166.947C560.031 167.38 560.088 167.813 560.088 168.19C560.088 170.243 561.349 171.316 563.854 171.41L560.088 188.49C558.299 188.791 556.717 189.055 555.38 189.243C554.209 189.432 553.026 189.532 551.84 189.544C548.903 189.633 545.999 188.896 543.46 187.416C542.469 186.747 541.672 185.83 541.146 184.756C540.621 183.682 540.386 182.489 540.466 181.296C540.443 180.839 540.443 180.38 540.466 179.922C540.507 179.287 540.601 178.657 540.748 178.039C540.899 177.398 541.087 176.721 541.276 175.986C537.685 180.667 533.073 184.466 527.793 187.096C523.066 189.555 517.83 190.877 512.502 190.957ZM521.353 173.858C523.187 173.84 525.006 173.522 526.738 172.917C528.721 172.246 530.618 171.342 532.388 170.224C534.256 169.025 535.987 167.623 537.547 166.043C539.128 164.472 540.535 162.736 541.746 160.865L545.644 142.486C545.273 139.794 544.301 137.22 542.801 134.954C541.376 132.775 539.477 130.947 537.246 129.606C535.117 128.34 532.68 127.688 530.203 127.723C526.951 127.717 523.752 128.554 520.919 130.152C517.955 131.821 515.315 134.009 513.124 136.611C510.817 139.333 508.967 142.411 507.644 145.725C506.322 149.025 505.638 152.546 505.629 156.101C505.568 159.241 506.212 162.355 507.512 165.215C508.703 167.835 510.601 170.071 512.992 171.674C515.493 173.233 518.409 173.994 521.353 173.858Z" fill="white"/>
<path d="M591.799 111.659H609.933L606.788 126.178C609.312 122.872 612.374 120.013 615.846 117.723C619.346 115.429 623.149 113.635 627.145 112.394C631.174 111.137 635.371 110.502 639.592 110.511C643.29 110.297 646.974 111.119 650.231 112.883C652.68 114.386 654.572 116.647 655.617 119.323C656.76 122.224 657.323 125.32 657.274 128.438C657.272 130.542 657.121 132.644 656.822 134.727C656.535 136.8 656.132 138.856 655.617 140.885L645.373 189.45H625.224L634.507 146.026C634.883 144.666 635.16 143.282 635.336 141.883C635.486 140.633 635.562 139.375 635.562 138.117C635.775 135.4 634.94 132.704 633.227 130.584C632.42 129.766 631.449 129.127 630.378 128.708C629.308 128.29 628.161 128.101 627.013 128.155C624.292 128.236 621.625 128.938 619.217 130.208C616.275 131.679 613.571 133.583 611.195 135.857C608.662 138.234 606.56 141.03 604.981 144.124L595.245 189.468H575.002L591.799 111.659Z" fill="white"/>
<path d="M705.402 190.956C700.268 191.18 695.198 189.748 690.94 186.869C687.2 184.164 684.396 180.359 682.918 175.985L680.075 189.449H662.317L685.536 80.0419H705.779L696.213 125.443C699.626 120.96 703.944 117.245 708.886 114.54C713.577 111.895 718.867 110.494 724.252 110.472C729.331 110.282 734.332 111.764 738.488 114.691C742.354 117.585 745.34 121.497 747.113 125.989C749.111 131.033 750.102 136.42 750.032 141.845C750.044 148.359 748.763 154.81 746.265 160.826C743.911 166.61 740.509 171.909 736.229 176.456C732.142 180.839 727.285 184.433 721.898 187.058C716.77 189.601 711.127 190.934 705.402 190.956ZM703.896 173.857C707.134 173.852 710.324 173.071 713.198 171.579C716.232 170.035 718.953 167.941 721.22 165.402C723.582 162.766 725.457 159.731 726.757 156.439C728.124 153 728.815 149.33 728.79 145.63C728.804 142.582 728.215 139.561 727.058 136.742C726.043 134.126 724.362 131.821 722.181 130.057C720.034 128.378 717.373 127.493 714.648 127.552C711.84 127.548 709.069 128.193 706.551 129.435C703.744 130.816 701.165 132.62 698.906 134.783C696.494 137.019 694.375 139.549 692.597 142.316L688.681 161.015C689.044 163.437 689.973 165.74 691.392 167.737C692.763 169.658 694.587 171.21 696.703 172.257C698.944 173.341 701.406 173.889 703.896 173.857Z" fill="white"/>
<path d="M776.453 190.956C764.25 190.956 758.155 184.622 758.168 171.955C758.166 170.116 758.291 168.279 758.545 166.457C758.789 164.574 759.166 162.54 759.656 160.356L770.163 111.659H790.086L780.671 155.949C780.017 158.408 779.663 160.937 779.616 163.482C779.616 170.386 782.661 173.838 788.749 173.838C791.23 173.803 793.679 173.285 795.961 172.313C798.652 171.148 801.153 169.587 803.381 167.681C806.005 165.419 808.299 162.801 810.198 159.904L820.498 111.659H840.591L828.897 166.438C828.716 166.918 828.589 167.417 828.52 167.926C828.492 168.321 828.492 168.717 828.52 169.112C828.52 171.183 829.725 172.275 832.117 172.37L828.52 189.449L823.718 190.203C822.53 190.396 821.322 190.447 820.121 190.353C817.277 190.594 814.431 189.893 812.024 188.357C811.037 187.636 810.246 186.679 809.723 185.574C809.2 184.469 808.961 183.251 809.03 182.03C809.03 181.54 809.03 180.975 809.03 180.335C809.03 179.695 809.181 178.923 809.331 178.038C809.482 177.153 809.708 176.155 810.009 174.912C805.732 179.91 800.477 183.979 794.568 186.869C788.913 189.574 782.721 190.971 776.453 190.956Z" fill="white"/>
<path d="M862.19 190.956C858.017 191.218 853.89 189.961 850.572 187.416C849.176 186.166 848.081 184.618 847.367 182.887C846.653 181.156 846.339 179.286 846.448 177.416C846.44 176.441 846.49 175.467 846.598 174.497C846.689 173.56 846.84 172.629 847.05 171.711L866.522 80.0419H886.614L868.631 164.385C868.518 164.988 868.461 165.553 868.405 166.042C868.376 166.544 868.376 167.047 868.405 167.549C868.405 171.654 870.451 173.707 874.544 173.707C875.814 173.679 877.077 173.508 878.31 173.198C879.745 172.846 881.131 172.314 882.434 171.616L881.831 186.907C878.712 188.275 875.445 189.28 872.096 189.901C868.835 190.567 865.518 190.92 862.19 190.956Z" fill="white"/>
<path d="M958.567 190.203C951.162 190.189 943.814 188.916 936.836 186.437C930.289 184.25 924.227 180.816 918.984 176.325L931.884 158.473C932.895 159.804 934.079 160.995 935.405 162.013C937.535 163.707 939.847 165.16 942.297 166.344C945.346 167.886 948.529 169.147 951.807 170.11C955.406 171.178 959.143 171.711 962.898 171.692C966.306 171.803 969.702 171.22 972.878 169.979C975.239 169.065 977.29 167.497 978.791 165.459C980.095 163.479 980.753 161.144 980.674 158.774C980.704 157.565 980.454 156.365 979.945 155.268C979.435 154.17 978.68 153.205 977.737 152.447C975.338 150.554 972.631 149.089 969.734 148.116C966.331 146.861 962.484 145.542 958.19 144.161C953.786 142.822 949.538 141.017 945.517 138.776C942.355 137.055 939.675 134.569 937.721 131.545C935.906 128.45 934.999 124.906 935.104 121.32C935.028 115.6 936.319 109.944 938.87 104.824C941.288 100.043 944.712 95.8419 948.907 92.5084C953.219 89.0881 958.12 86.4844 963.369 84.8254C968.845 83.0658 974.565 82.1825 980.317 82.208C988.779 82.1629 997.119 84.2206 1004.59 88.1962C1007.68 89.8563 1010.59 91.8181 1013.29 94.0526L1000.69 110.831C999.908 109.732 998.947 108.771 997.848 107.987C996.095 106.616 994.202 105.436 992.199 104.466C989.745 103.26 987.186 102.283 984.553 101.547C981.725 100.738 978.796 100.332 975.854 100.342C972.461 100.248 969.088 100.891 965.967 102.225C963.513 103.259 961.403 104.97 959.885 107.159C958.498 109.366 957.797 111.935 957.87 114.541C957.845 115.561 958.038 116.574 958.438 117.513C958.837 118.452 959.434 119.294 960.186 119.983C962.149 121.649 964.412 122.928 966.852 123.749C969.752 124.841 973.255 126.034 977.36 127.327C982.19 128.697 986.881 130.519 991.37 132.769C995.031 134.558 998.194 137.223 1000.58 140.527C1002.9 144.083 1004.06 148.278 1003.87 152.522C1004.04 158.462 1002.74 164.351 1000.11 169.677C997.714 174.331 994.216 178.327 989.92 181.315C985.476 184.364 980.529 186.608 975.308 187.943C969.85 189.426 964.222 190.185 958.567 190.203Z" fill="white"/>
<path d="M1045.79 190.956C1039.33 191.211 1032.92 189.673 1027.28 186.512C1022.59 183.718 1018.88 179.55 1016.64 174.573C1014.35 169.365 1013.2 163.728 1013.27 158.039C1013.18 145.584 1017.96 133.587 1026.6 124.615C1030.91 120.129 1036.09 116.572 1041.82 114.163C1047.92 111.625 1054.47 110.344 1061.08 110.397C1067.58 110.129 1074.04 111.64 1079.74 114.766C1084.45 117.525 1088.19 121.668 1090.46 126.629C1092.81 131.867 1093.98 137.555 1093.91 143.295C1093.93 149.494 1092.74 155.637 1090.38 161.372C1088.09 167.023 1084.73 172.182 1080.5 176.569C1076.17 181.028 1071 184.58 1065.28 187.02C1059.13 189.676 1052.49 191.016 1045.79 190.956ZM1048.94 173.857C1052.05 173.859 1055.13 173.157 1057.94 171.805C1060.88 170.391 1063.51 168.392 1065.66 165.929C1070.5 160.34 1073.14 153.176 1073.08 145.78C1073.14 142.514 1072.55 139.268 1071.35 136.233C1070.32 133.643 1068.55 131.415 1066.26 129.831C1063.78 128.245 1060.88 127.451 1057.94 127.552C1054.86 127.549 1051.83 128.279 1049.09 129.68C1043.06 132.814 1038.41 138.085 1036.06 144.462C1034.75 148.039 1034.12 151.823 1034.17 155.629C1034.11 158.895 1034.67 162.143 1035.83 165.195C1036.8 167.793 1038.56 170.024 1040.86 171.579C1043.26 173.139 1046.08 173.934 1048.94 173.857Z" fill="white"/>
<path d="M1116.84 190.955C1112.67 191.214 1108.54 189.957 1105.22 187.415C1103.83 186.166 1102.73 184.618 1102.02 182.887C1101.3 181.156 1100.99 179.286 1101.1 177.416C1101.1 176.418 1101.1 175.439 1101.25 174.497C1101.34 173.56 1101.49 172.629 1101.7 171.71L1121.19 80.0417H1141.27L1123.28 164.385C1123.28 164.988 1123.11 165.553 1123.06 166.042C1123 166.532 1123.06 167.04 1123.06 167.549C1123.06 171.654 1125.11 173.706 1129.21 173.706C1130.48 173.677 1131.75 173.507 1132.98 173.198C1134.41 172.839 1135.8 172.308 1137.1 171.616L1136.5 186.907C1133.38 188.275 1130.1 189.28 1126.75 189.901C1123.49 190.566 1120.17 190.919 1116.84 190.955Z" fill="white"/>
<path d="M1175.44 190.956C1170.11 191.114 1164.85 189.643 1160.38 186.738C1156.18 183.861 1152.87 179.879 1150.79 175.233C1148.5 170.212 1147.35 164.745 1147.42 159.226C1147.39 152.856 1148.59 146.54 1150.94 140.622C1153.15 134.928 1156.34 129.664 1160.36 125.067C1164.22 120.675 1168.87 117.053 1174.07 114.39C1179.1 111.806 1184.68 110.463 1190.34 110.473C1195.08 110.319 1199.74 111.703 1203.63 114.418C1207.52 117.133 1210.43 121.034 1211.92 125.538L1214.91 111.754H1235.01L1223.16 165.554C1223.16 166.043 1222.99 166.514 1222.94 166.947C1222.88 167.38 1222.94 167.813 1222.94 168.19C1222.94 170.243 1224.2 171.316 1226.7 171.41L1222.94 188.49C1221.05 188.791 1219.56 189.055 1218.23 189.243C1217.06 189.431 1215.89 189.532 1214.71 189.544C1211.76 189.632 1208.85 188.895 1206.31 187.416C1205.32 186.747 1204.52 185.83 1203.99 184.756C1203.47 183.682 1203.23 182.489 1203.31 181.296C1203.29 180.838 1203.29 180.379 1203.31 179.922C1203.36 179.287 1203.46 178.657 1203.61 178.038C1203.77 177.398 1203.93 176.72 1204.12 175.986C1200.53 180.666 1195.92 184.466 1190.64 187.096C1185.94 189.541 1180.74 190.863 1175.44 190.956ZM1184.29 173.858C1186.13 173.84 1187.95 173.522 1189.68 172.917C1191.66 172.249 1193.56 171.345 1195.33 170.224C1197.2 169.025 1198.93 167.623 1200.49 166.043C1202.07 164.472 1203.48 162.736 1204.69 160.865L1208.59 142.486C1208.22 139.792 1207.25 137.216 1205.74 134.953C1204.29 132.765 1202.36 130.936 1200.09 129.606C1197.96 128.339 1195.53 127.688 1193.05 127.722C1189.8 127.717 1186.6 128.554 1183.77 130.152C1180.8 131.821 1178.16 134.009 1175.97 136.611C1173.66 139.333 1171.81 142.411 1170.49 145.725C1169.17 149.025 1168.49 152.546 1168.48 156.101C1168.4 159.242 1169.05 162.359 1170.36 165.215C1171.54 167.837 1173.43 170.075 1175.82 171.674C1178.35 173.255 1181.31 174.018 1184.29 173.858Z" fill="white"/>
<path d="M1254.74 111.659H1273.17L1269.58 128.287C1273.02 123.289 1277.39 119.004 1282.46 115.67C1286.58 112.832 1291.4 111.184 1296.39 110.906H1298.8C1299.24 110.884 1299.68 110.988 1300.07 111.207L1296.3 129.059C1290.76 129.122 1285.28 130.294 1280.2 132.505C1275.36 134.522 1271.22 137.905 1268.28 142.24L1258.24 189.449H1237.94L1254.74 111.659Z" fill="white"/>
</svg>
