<svg width="530" height="530" viewBox="0 0 530 530" fill="none" xmlns="http://www.w3.org/2000/svg">
<path d="M194.465 283.445C164.816 297.136 131.848 301.987 99.5124 297.414C73.3422 293.036 48.6943 282.143 27.8384 265.74L0.361816 289.457C39.792 312.084 74.3126 317.42 93.5 318.867C110.102 320.053 129.29 321.345 151.88 312.629C168.118 306.281 182.685 296.297 194.465 283.445Z" fill="white"/>
<path d="M192.2 264.613C172.544 267.962 152.455 267.858 132.835 264.305C120.484 262.053 108.421 258.438 96.8678 253.525C72.7229 242.517 51.7338 225.614 35.831 204.371L3.1366 220.226C35.3685 252.245 67.3396 266.38 85.4952 272.736C101.208 278.239 119.435 284.405 143.496 281.82C160.831 279.877 177.491 273.991 192.2 264.613Z" fill="white"/>
<path d="M194.915 245.829C175.06 243.985 155.679 238.683 137.65 230.164C126.302 224.795 115.587 218.181 105.702 210.442C85.2242 193.566 69.32 171.81 59.4535 147.176L23.7706 154.019C46.6105 193.33 73.8381 215.221 89.7287 226.06C103.485 235.441 119.494 246.102 143.413 249.849C160.662 252.462 178.281 251.087 194.915 245.829Z" fill="white"/>
<path d="M202.351 228.385C171.71 217.083 144.971 197.199 125.328 171.107C109.928 149.503 100.203 124.376 97.0452 98.0338L60.8169 95.4131C72.6756 139.29 93.3335 167.478 105.88 182.065C116.731 194.694 129.431 209.126 151.572 218.933C167.556 225.915 184.925 229.148 202.351 228.385Z" fill="white"/>
<path d="M214.068 213.455C187.393 194.615 166.713 168.487 154.501 138.199C145.214 113.344 142.323 86.5526 146.094 60.2878L111.775 48.4291C111.893 93.8835 124.534 126.459 132.871 143.785C140.093 158.798 148.619 176.029 167.463 191.22C181.097 202.091 197.039 209.697 214.068 213.455Z" fill="white"/>
<path d="M229.305 202.07C208.418 176.97 195.202 146.385 191.239 113.972C188.672 87.5674 192.79 60.9414 203.216 36.5467L173.142 16.1616C161.485 60.0981 165.28 94.8322 168.85 113.735C171.933 130.088 175.704 148.955 189.982 168.51C200.345 182.562 213.799 194.044 229.305 202.07Z" fill="white"/>
<path d="M246.869 195.014C233.18 165.365 228.318 132.401 232.864 100.062C237.245 73.8905 248.142 49.2425 264.55 28.3879C256.644 19.2329 248.738 10.074 240.833 0.911194C218.206 40.3414 212.87 74.8739 211.423 94.0495C210.237 110.652 208.945 129.851 217.661 152.43C224.013 168.671 234.005 183.239 246.869 195.014Z" fill="white"/>
<path d="M265.712 192.75C260.17 160.568 264.015 127.471 276.788 97.4174C287.8 73.2784 304.703 52.2942 325.942 36.3926C320.661 25.4984 315.376 14.6002 310.087 3.69812C278.069 35.9301 263.945 67.9011 257.577 86.0568C252.074 101.77 245.92 119.984 248.493 144.058C250.441 161.39 256.331 178.046 265.712 192.75Z" fill="white"/>
<path d="M284.496 195.441C287.464 162.906 299.746 131.916 319.87 106.181C336.754 85.7055 358.513 69.8021 383.148 59.9319C380.856 48.0732 378.571 36.1829 376.294 24.2609C336.982 47.0889 315.103 74.3284 304.264 90.2191C294.872 103.963 284.211 119.973 280.476 143.892C277.854 161.156 279.23 178.792 284.496 195.441Z" fill="white"/>
<path d="M301.94 202.901C313.227 172.258 333.11 145.52 359.206 125.89C380.813 110.487 405.944 100.762 432.291 97.6071C433.161 85.5191 434.03 73.439 434.9 61.3668C391.023 73.2255 362.835 93.8952 348.248 106.43C335.631 117.292 321.187 129.993 311.38 152.121C304.397 168.105 301.168 185.475 301.94 202.901Z" fill="white"/>
<path d="M316.858 214.629C335.7 187.953 361.827 167.27 392.113 155.05C416.968 145.758 443.761 142.871 470.025 146.655C473.978 135.207 477.931 123.744 481.884 112.264C436.418 112.383 403.854 125.024 386.516 133.373C371.515 140.583 354.272 149.121 339.081 167.965C328.199 181.613 320.596 197.578 316.858 214.629Z" fill="white"/>
<path d="M328.243 229.808C353.343 208.921 383.928 195.705 416.341 191.742C442.755 189.214 469.381 193.357 493.778 203.79L514.163 173.776C470.215 162.13 435.481 165.913 416.578 169.483C400.225 172.566 381.37 176.349 361.803 190.615C347.776 200.951 336.297 214.357 328.243 229.808Z" fill="white"/>
<path d="M335.299 247.418C353.421 239.093 372.856 233.993 392.731 232.345C405.24 231.324 417.825 231.698 430.251 233.46C456.417 237.824 481.065 248.701 501.925 265.087L529.402 241.37C489.972 218.744 455.451 213.407 436.264 211.972C419.662 210.715 400.474 209.482 377.883 218.21C361.644 224.565 347.076 234.557 335.299 247.418Z" fill="white"/>
<path d="M337.563 266.273C357.218 262.919 377.308 263.02 396.928 266.57C409.28 268.824 421.343 272.444 432.896 277.361C457.036 288.371 478.024 305.269 493.932 326.504L526.627 310.66C494.395 278.642 462.424 264.506 444.268 258.15C428.555 252.648 410.328 246.481 386.267 249.066C368.931 251.004 352.269 256.89 337.563 266.273Z" fill="white"/>
<path d="M335.265 284.517C355.121 286.361 374.501 291.663 392.531 300.182C403.878 305.551 414.593 312.165 424.478 319.904C444.956 336.78 460.86 358.536 470.727 383.17L506.41 376.327C483.57 337.016 456.342 315.125 440.452 304.286C426.696 294.905 410.686 284.244 386.767 280.497C369.518 277.884 351.9 279.259 335.265 284.517Z" fill="white"/>
<path d="M327.83 301.961C358.471 313.263 385.21 333.147 404.852 359.239C420.252 380.843 429.977 405.97 433.135 432.312L469.363 434.933C457.505 391.056 436.847 362.868 424.3 348.281C413.45 335.652 400.749 321.22 378.609 311.413C362.625 304.431 345.255 301.198 327.83 301.961Z" fill="white"/>
<path d="M316.113 316.891C342.787 335.731 363.468 361.859 375.679 392.146C384.966 417.002 387.858 443.793 384.087 470.058L418.406 481.917C418.287 436.462 405.646 403.887 397.309 386.561C390.087 371.548 381.561 354.317 362.717 339.126C349.083 328.255 333.141 320.649 316.113 316.891Z" fill="white"/>
<path d="M300.875 328.276C321.762 353.376 334.978 383.961 338.941 416.374C341.509 442.779 337.39 469.405 326.964 493.799L357.038 514.184C368.695 470.248 364.9 435.514 361.331 416.611C358.247 400.258 354.476 381.391 340.198 361.836C329.835 347.784 316.381 336.302 300.875 328.276Z" fill="white"/>
<path d="M283.311 335.332C297 364.981 301.862 397.945 297.317 430.284C292.935 456.456 282.038 481.104 265.63 501.958C273.536 511.113 281.442 520.272 289.348 529.435C311.974 490.005 317.31 455.472 318.757 436.297C319.943 419.694 321.236 400.495 312.519 377.916C306.167 361.675 296.175 347.107 283.311 335.332Z" fill="white"/>
<path d="M264.468 337.596C270.01 369.778 266.165 402.875 253.392 432.929C242.38 457.068 225.477 478.052 204.238 493.953C209.519 504.848 214.804 515.746 220.093 526.648C252.112 494.416 266.235 462.445 272.603 444.289C278.106 428.576 284.261 410.361 281.687 386.288C279.739 368.956 273.849 352.3 264.468 337.596Z" fill="white"/>
<path d="M245.684 334.905C242.716 367.44 230.435 398.43 210.31 424.165C193.426 444.64 171.667 460.544 147.032 470.414C149.325 482.273 151.609 494.163 153.886 506.085C193.198 483.257 215.077 456.018 225.916 440.127C235.308 426.383 245.969 410.373 249.704 386.454C252.326 369.19 250.951 351.554 245.684 334.905Z" fill="white"/>
<path d="M228.24 327.445C216.953 358.088 197.07 384.826 170.975 404.456C149.368 419.859 124.236 429.584 97.8894 432.739C97.0197 444.827 96.1501 456.907 95.2804 468.979C139.158 457.12 167.346 436.451 181.932 423.916C194.55 413.053 208.993 400.353 218.801 378.224C225.783 362.241 229.012 344.87 228.24 327.445Z" fill="white"/>
<path d="M213.322 315.717C194.48 342.392 168.353 363.076 138.067 375.296C113.212 384.587 86.4187 387.475 60.1551 383.691C56.2022 395.139 52.2493 406.602 48.2964 418.082C93.7626 417.963 126.327 405.322 143.664 396.973C158.665 389.763 175.908 381.225 191.099 362.381C201.982 348.733 209.585 332.768 213.322 315.717Z" fill="white"/>
<path d="M201.938 300.538C176.837 321.425 146.252 334.641 113.839 338.604C87.4253 341.132 60.7993 336.989 36.4019 326.556L16.0168 356.57C59.9651 368.216 94.6993 364.433 113.602 360.863C129.955 357.78 148.811 353.997 168.377 339.731C182.405 329.395 193.884 315.989 201.938 300.538Z" fill="white"/>
</svg>
